<?xml version="1.0" encoding="UTF-8"?>
<svg version="1.1" xmlns="http://www.w3.org/2000/svg" width="227" height="222">
<path d="M0 0 C1.16402344 0.13148437 1.16402344 0.13148437 2.3515625 0.265625 C4.375 0.75 4.375 0.75 6.375 2.75 C5.375 4.75 5.375 4.75 2.375 5.9375 C-2.63122818 7.9789742 -6.54052274 11.26660716 -10.625 14.75 C-11.26953125 15.29785156 -11.9140625 15.84570312 -12.578125 16.41015625 C-18.7023427 22.04177383 -23.07509591 29.62702949 -23.828125 38.01171875 C-24.05635875 49.82281535 -19.87875283 57.30984881 -11.84765625 65.671875 C-7.51604691 70.09781563 -3.12893065 74.4008643 1.625 78.375 C13.83657754 88.87090136 27.00905718 108.24161244 28.56787109 124.79858398 C29.27471335 144.07824196 25.3113624 160.37975678 18.5625 178.375 C18.17271973 179.46071289 17.78293945 180.54642578 17.38134766 181.66503906 C14.50071984 188.93326297 14.50071984 188.93326297 11.54711914 191.07617188 C9.47596212 191.91140961 7.57581687 192.38349704 5.375 192.75 C4.08722656 193.00265625 2.79945313 193.2553125 1.47265625 193.515625 C0.12957873 193.69275959 -1.21571291 193.85371796 -2.5625 194 C-3.29267334 194.08008301 -4.02284668 194.16016602 -4.77514648 194.24267578 C-23.04341466 195.99182773 -40.00002979 192.43275138 -56.625 184.75 C-56.625 180.64569145 -54.46258337 179.15057253 -51.75 176.375 C-34.40036988 158.00099593 -18.14019202 134.72686931 -17.0625 108.6875 C-17.58596254 94.60159892 -24.0431252 85.15267819 -32.625 74.75 C-40.1248164 64.90387232 -43.99310933 57.39321728 -42.625 44.75 C-38.98417039 27.07251285 -26.09575581 13.29913172 -11.54296875 3.5625 C-4.82120995 -0.61272902 -4.82120995 -0.61272902 0 0 Z " fill="#FDC227" transform="translate(127.625,14.25)"/>
<path d="M0 0 C0.99 0.99 0.99 0.99 2 2 C1.28457031 2.38929687 0.56914063 2.77859375 -0.16796875 3.1796875 C-19.74591967 14.17170651 -36.01826692 27.98734569 -43 50 C-46.21464694 63.55034723 -41.85272164 75.71339101 -36.3046875 87.96875 C-33.70941538 93.99848404 -32.69739539 100.06041531 -34.80078125 106.421875 C-43.61551992 125.44474746 -62.64272417 138.80203147 -79 151 C-82.32028481 149.63469401 -83.64855946 148.46261225 -85.21875 145.24609375 C-85.59193359 144.48296875 -85.96511719 143.71984375 -86.34960938 142.93359375 C-86.72923828 142.10988281 -87.10886719 141.28617188 -87.5 140.4375 C-87.89509766 139.58414063 -88.29019531 138.73078125 -88.69726562 137.8515625 C-99.11757937 114.52250188 -99.67755682 87.95664384 -90.80224609 64.02197266 C-86.61051364 53.45717405 -81.18032494 43.83097435 -74 35 C-73.34773438 34.17242187 -72.69546875 33.34484375 -72.0234375 32.4921875 C-56.13357007 13.50766424 -32.98851831 3.52003103 -8.875 0.6875 C-8.03195313 0.58638916 -7.18890625 0.48527832 -6.3203125 0.38110352 C-4.22065758 0.16646355 -2.10932113 0.07338592 0 0 Z " fill="#FDC227" transform="translate(113,13)"/>
<path d="M0 0 C2.67630213 1.04538701 5.20546756 2.29365597 7.75 3.625 C8.44520752 3.98182861 9.14041504 4.33865723 9.85668945 4.70629883 C17.99025537 8.94341087 25.67920417 13.28415443 32 20 C33.485 20.495 33.485 20.495 35 21 C37.60240156 23.77769286 39.7586354 26.92785933 42 30 C42.72960937 30.97710937 43.45921875 31.95421875 44.2109375 32.9609375 C55.83592417 49.02960508 63.51257143 67.95449991 64 88 C64.061875 88.95132813 64.12375 89.90265625 64.1875 90.8828125 C64.91987002 109.14628979 58.92374794 128.75060434 49 144 C48.34 144.33 47.68 144.66 47 145 C46.84144531 143.69289062 46.68289062 142.38578125 46.51953125 141.0390625 C42.9373483 112.97907 35.17171386 89.20220857 12.11572266 71.30810547 C5.29622343 66.26032997 -2.00846804 61.8941635 -9.29760742 57.56494141 C-17.60827874 52.54859641 -27.61969522 46.43984007 -31.5078125 37.08984375 C-33.18130975 29.98412129 -30.92172983 23.58578497 -27.49609375 17.375 C-21.67700589 8.13738794 -11.7229752 -3.05761583 0 0 Z " fill="#FDC227" transform="translate(147,19)"/>
<path d="M0 0 C0.99 0 1.98 0 3 0 C2.54738642 1.43931117 2.08767021 2.87638999 1.625 4.3125 C1.36976563 5.11300781 1.11453125 5.91351563 0.8515625 6.73828125 C0 9 0 9 -2 12 C-4.3828125 12.73046875 -4.3828125 12.73046875 -7.125 13.1875 C-8.03507813 13.34605469 -8.94515625 13.50460938 -9.8828125 13.66796875 C-10.58148438 13.77753906 -11.28015625 13.88710937 -12 14 C-12 13.34 -12 12.68 -12 12 C-10.35 12 -8.7 12 -7 12 C-7.33 11.01 -7.66 10.02 -8 9 C-7.34 8.34 -6.68 7.68 -6 7 C-4.68 7 -3.36 7 -2 7 C-1.855625 6.401875 -1.71125 5.80375 -1.5625 5.1875 C-1.1127561 3.43849596 -0.57107659 1.71322977 0 0 Z " fill="#F5BF2F" transform="translate(142,193)"/>
<path d="M0 0 C2.54137943 5.08275887 3.05945831 9.64402801 1.32421875 15.140625 C0.61651803 16.79080867 -0.18343163 18.40088694 -1 20 C-1.33 20 -1.66 20 -2 20 C-2 18.02 -2 16.04 -2 14 C-1.34 14 -0.68 14 0 14 C0 9.38 0 4.76 0 0 Z " fill="#F0BD42" transform="translate(77,104)"/>
<path d="M0 0 C1.14926266 0.95421808 2.29430541 1.91352045 3.4375 2.875 C4.07558594 3.40867187 4.71367188 3.94234375 5.37109375 4.4921875 C7 6 7 6 8 8 C5.625 8.125 5.625 8.125 3 8 C0.4345406 5.4345406 0.45953913 3.52313332 0 0 Z " fill="#F1BC37" transform="translate(114,79)"/>
<path d="M0 0 C1.2077558 3.62326739 0.54311128 4.64146369 -1 8 C-2.7074998 6.71937515 -4.37373596 5.38232443 -6 4 C-6 3.34 -6 2.68 -6 2 C-4.02 1.34 -2.04 0.68 0 0 Z " fill="#F6BE34" transform="translate(125,58)"/>
<path d="M0 0 C1 2 1 2 0.44140625 3.9453125 C0.15136719 4.66460937 -0.13867188 5.38390625 -0.4375 6.125 C-0.72496094 6.84945312 -1.01242188 7.57390625 -1.30859375 8.3203125 C-1.53675781 8.87460938 -1.76492187 9.42890625 -2 10 C-2.33 10 -2.66 10 -3 10 C-3.33 7.36 -3.66 4.72 -4 2 C-2.68 1.34 -1.36 0.68 0 0 Z " fill="#F4C039" transform="translate(150,177)"/>
<path d="M0 0 C-1.1858237 3.37503669 -2.27573689 5.64722731 -5 8 C-5.33 5.69 -5.66 3.38 -6 1 C-3.92446352 0.4465236 -2.15634036 0 0 0 Z " fill="#F4C334" transform="translate(199,156)"/>
<path d="M0 0 C2.2477975 2.05233685 3.0022242 3.00667261 4 6 C4.66 6.66 5.32 7.32 6 8 C5.67 8.99 5.34 9.98 5 11 C3.02 8.03 1.04 5.06 -1 2 C-0.67 1.34 -0.34 0.68 0 0 Z " fill="#F1BD32" transform="translate(100,91)"/>
<path d="M0 0 C3.98175544 2.10148204 6.35039045 4.36905358 9 8 C5.75728494 7.4409112 4.06942576 6.5867822 2 4 C2 3.34 2 2.68 2 2 C1.34 2 0.68 2 0 2 C0 1.34 0 0.68 0 0 Z " fill="#F8D61F" transform="translate(124,89)"/>
<path d="M0 0 C0.66 0.66 1.32 1.32 2 2 C0.02 2.66 -1.96 3.32 -4 4 C-4 3.34 -4 2.68 -4 2 C-6.64 2 -9.28 2 -12 2 C-12 1.67 -12 1.34 -12 1 C-10.04310341 0.77857745 -8.08438048 0.5732432 -6.125 0.375 C-4.48917969 0.20097656 -4.48917969 0.20097656 -2.8203125 0.0234375 C-1.88960937 0.01570312 -0.95890625 0.00796875 0 0 Z " fill="#F5C63D" transform="translate(113,13)"/>
<path d="M0 0 C1.32 0.33 2.64 0.66 4 1 C-1.625 5 -1.625 5 -5 5 C-4.67 4.01 -4.34 3.02 -4 2 C-2.68 2 -1.36 2 0 2 C0 1.34 0 0.68 0 0 Z " fill="#F5BC2E" transform="translate(105,17)"/>
<path d="M0 0 C3.16115776 1.36983503 3.9927092 1.9890638 6 5 C5.01 5 4.02 5 3 5 C3 5.66 3 6.32 3 7 C2.34 7 1.68 7 1 7 C1.33 5.35 1.66 3.7 2 2 C1.34 2 0.68 2 0 2 C0 1.34 0 0.68 0 0 Z " fill="#F3BF38" transform="translate(173,35)"/>
<path d="M0 0 C1.65 0.33 3.3 0.66 5 1 C3.35 2.65 1.7 4.3 0 6 C-1.125 2.25 -1.125 2.25 0 0 Z " fill="#F3BB38" transform="translate(81,34)"/>
<path d="M0 0 C1.98 0 3.96 0 6 0 C4.68 2.31 3.36 4.62 2 7 C0.75453595 4.50907189 1.2232422 3.58919267 2 1 C1.34 0.67 0.68 0.34 0 0 Z " fill="#EDC238" transform="translate(73,43)"/>
<path d="" fill="#FFFFFF" transform="translate(0,0)"/>
<path d="" fill="#FFFFFF" transform="translate(0,0)"/>
<path d="" fill="#FFFFFF" transform="translate(0,0)"/>
<path d="" fill="#FFFFFF" transform="translate(0,0)"/>
<path d="" fill="#FFFFFF" transform="translate(0,0)"/>
<path d="" fill="#FFFFFF" transform="translate(0,0)"/>
<path d="" fill="#FFFFFF" transform="translate(0,0)"/>
<path d="" fill="#FFFFFF" transform="translate(0,0)"/>
<path d="" fill="#FFFFFF" transform="translate(0,0)"/>
<path d="" fill="#FFFFFF" transform="translate(0,0)"/>
<path d="" fill="#FFFFFF" transform="translate(0,0)"/>
<path d="" fill="#FFFFFF" transform="translate(0,0)"/>
<path d="" fill="#FFFFFF" transform="translate(0,0)"/>
<path d="" fill="#FFFFFF" transform="translate(0,0)"/>
<path d="" fill="#FFFFFF" transform="translate(0,0)"/>
<path d="" fill="#FFFFFF" transform="translate(0,0)"/>
<path d="" fill="#FFFFFF" transform="translate(0,0)"/>
<path d="" fill="#FFFFFF" transform="translate(0,0)"/>
<path d="" fill="#FFFFFF" transform="translate(0,0)"/>
<path d="" fill="#FFFFFF" transform="translate(0,0)"/>
<path d="" fill="#FFFFFF" transform="translate(0,0)"/>
<path d="" fill="#FFFFFF" transform="translate(0,0)"/>
<path d="" fill="#FFFFFF" transform="translate(0,0)"/>
<path d="" fill="#FFFFFF" transform="translate(0,0)"/>
<path d="" fill="#FFFFFF" transform="translate(0,0)"/>
<path d="" fill="#FFFFFF" transform="translate(0,0)"/>
<path d="" fill="#FFFFFF" transform="translate(0,0)"/>
<path d="" fill="#FFFFFF" transform="translate(0,0)"/>
<path d="" fill="#FFFFFF" transform="translate(0,0)"/>
<path d="" fill="#FFFFFF" transform="translate(0,0)"/>
<path d="" fill="#FFFFFF" transform="translate(0,0)"/>
<path d="" fill="#FFFFFF" transform="translate(0,0)"/>
<path d="" fill="#FFFFFF" transform="translate(0,0)"/>
<path d="" fill="#FFFFFF" transform="translate(0,0)"/>
<path d="" fill="#FFFFFF" transform="translate(0,0)"/>
<path d="" fill="#FFFFFF" transform="translate(0,0)"/>
<path d="" fill="#FFFFFF" transform="translate(0,0)"/>
<path d="" fill="#FFFFFF" transform="translate(0,0)"/>
<path d="" fill="#FFFFFF" transform="translate(0,0)"/>
<path d="" fill="#FFFFFF" transform="translate(0,0)"/>
<path d="" fill="#FFFFFF" transform="translate(0,0)"/>
<path d="" fill="#FFFFFF" transform="translate(0,0)"/>
<path d="" fill="#FFFFFF" transform="translate(0,0)"/>
<path d="" fill="#FFFFFF" transform="translate(0,0)"/>
<path d="" fill="#FFFFFF" transform="translate(0,0)"/>
<path d="" fill="#FFFFFF" transform="translate(0,0)"/>
<path d="" fill="#FFFFFF" transform="translate(0,0)"/>
<path d="" fill="#FFFFFF" transform="translate(0,0)"/>
<path d="" fill="#FFFFFF" transform="translate(0,0)"/>
<path d="" fill="#FFFFFF" transform="translate(0,0)"/>
<path d="" fill="#FFFFFF" transform="translate(0,0)"/>
<path d="" fill="#FFFFFF" transform="translate(0,0)"/>
<path d="" fill="#FFFFFF" transform="translate(0,0)"/>
<path d="" fill="#FFFFFF" transform="translate(0,0)"/>
<path d="" fill="#FFFFFF" transform="translate(0,0)"/>
<path d="" fill="#FFFFFF" transform="translate(0,0)"/>
<path d="" fill="#FFFFFF" transform="translate(0,0)"/>
<path d="" fill="#FFFFFF" transform="translate(0,0)"/>
<path d="" fill="#FFFFFF" transform="translate(0,0)"/>
</svg>
